<?xml version="1.0" standalone="no"?>
<!DOCTYPE svg PUBLIC "-//W3C//DTD SVG 20010904//EN"
 "http://www.w3.org/TR/2001/REC-SVG-20010904/DTD/svg10.dtd">
<svg version="1.0" xmlns="http://www.w3.org/2000/svg"
 width="50" height="50" viewBox="0 0 1893.000000 2000.000000"
 preserveAspectRatio="xMidYMid meet">
<metadata>
</metadata>
<g transform="translate(0.000000,2000.000000) scale(0.100000,-0.100000)"
fill="#000000" stroke="none">
<path d="M9156 16149 c-513 -33 -1053 -157 -1531 -354 -602 -247 -1123 -589
-1589 -1045 -515 -504 -891 -1070 -1155 -1737 -44 -110 -134 -384 -148 -447
-8 -39 -11 -41 -85 -67 -152 -53 -268 -127 -397 -252 -246 -240 -389 -573
-408 -947 -31 -621 306 -1187 813 -1364 l67 -24 43 -138 c203 -654 507 -1212
947 -1737 265 -316 622 -642 954 -869 l103 -71 0 -162 0 -162 -57 -13 c-69
-15 -346 -106 -386 -126 -26 -14 -30 -13 -84 28 -78 57 -156 94 -231 109 -214
41 -431 -81 -513 -289 -31 -78 -32 -233 -3 -307 l20 -50 -84 -80 c-143 -135
-311 -344 -434 -537 -199 -313 -337 -679 -398 -1049 -25 -156 -45 -420 -36
-480 9 -58 54 -115 104 -129 25 -7 1574 -10 4826 -10 4769 0 4790 0 4831 20
27 13 49 34 65 62 22 39 23 47 17 187 -23 556 -205 1090 -522 1533 -88 124
-245 306 -345 401 l-81 78 21 65 c95 308 -148 615 -465 591 -107 -8 -185 -42
-311 -135 l-31 -23 -101 40 c-98 39 -330 111 -358 111 -11 0 -14 29 -14 163
l0 163 138 96 c356 250 746 621 1033 983 292 369 538 798 716 1250 39 98 147
421 157 472 6 27 15 34 64 54 151 60 259 132 384 255 168 168 284 376 348 631
105 416 31 876 -196 1215 l-54 81 0 569 0 568 40 36 c22 20 51 60 66 90 23 47
26 63 22 131 -4 89 -24 139 -76 191 -114 113 -309 110 -414 -6 -62 -69 -73
-97 -73 -192 0 -76 3 -91 30 -139 16 -29 44 -65 62 -78 l33 -25 0 -434 c0
-239 -3 -434 -6 -434 -4 0 -22 10 -41 21 -19 12 -67 34 -107 50 l-71 27 -33
104 c-135 426 -270 739 -460 1070 -406 706 -983 1302 -1682 1738 -863 539
-1889 795 -2924 729z m174 -856 c0 -532 1 -548 21 -589 37 -77 136 -105 213
-61 79 45 76 22 76 646 l0 554 118 -6 c64 -4 199 -17 300 -29 l182 -21 0 -441
c0 -422 1 -442 20 -474 62 -101 214 -96 268 8 22 44 22 49 22 442 l0 398 28
-6 c273 -61 669 -207 968 -358 235 -117 354 -188 553 -325 659 -456 1185
-1064 1533 -1771 256 -523 414 -1090 458 -1650 5 -74 13 -159 16 -188 l5 -52
-362 2 -363 3 -18 140 c-88 677 -314 1164 -676 1457 -447 361 -1207 627 -2087
732 -696 83 -1541 83 -2235 1 -491 -58 -1007 -183 -1385 -334 -300 -121 -591
-292 -771 -455 -322 -292 -531 -774 -611 -1408 l-17 -138 -363 0 -363 0 0 44
c0 83 21 300 46 475 126 886 522 1729 1131 2411 527 590 1221 1050 1962 1300
155 52 357 110 395 113 l30 2 1 -395 c0 -217 4 -406 9 -420 5 -14 18 -36 30
-48 70 -78 184 -68 250 21 20 28 21 40 24 473 3 391 5 444 18 444 9 0 68 7
132 15 161 21 284 32 370 34 l72 1 0 -547z m710 -1853 c952 -51 1701 -243
2275 -584 61 -36 140 -90 178 -121 l67 -55 -1 -413 0 -412 -20 70 c-27 93 -89
223 -143 298 -73 103 -211 232 -341 320 -549 369 -1477 552 -2704 534 -531 -8
-792 -30 -1224 -103 -830 -141 -1418 -456 -1627 -874 -40 -81 -65 -151 -79
-221 -6 -28 -9 107 -10 374 l-1 419 43 39 c57 53 188 139 328 216 432 236 996
395 1669 472 480 55 1049 69 1590 41z m65 -690 c439 -35 827 -99 1123 -185
500 -145 848 -368 967 -620 64 -136 59 -39 63 -1290 3 -1183 2 -1226 -39
-1390 -60 -244 -209 -546 -387 -784 -427 -574 -1054 -1063 -1677 -1307 -127
-49 -246 -85 -389 -116 -154 -34 -404 -32 -578 5 -589 124 -1254 533 -1778
1092 -351 375 -589 790 -673 1174 -20 94 -21 122 -24 1241 -3 807 -1 1164 7
1209 93 540 949 904 2300 981 193 11 910 4 1085 -10z m-3705 -1299 l0 -78 -72
-5 c-129 -9 -231 -83 -279 -204 -19 -49 -23 -78 -23 -174 -1 -97 3 -121 20
-155 24 -46 83 -85 129 -85 45 0 109 34 136 71 21 30 24 45 24 129 0 52 4 101
8 108 5 6 19 12 33 12 l24 0 0 -486 0 -487 -69 6 c-37 3 -84 12 -102 20 -160
69 -268 357 -293 787 -17 278 -17 355 -1 413 26 99 90 172 173 197 15 5 87 9
160 9 l132 1 0 -79z m6506 52 c89 -47 135 -133 142 -268 5 -109 -13 -401 -34
-543 -46 -314 -142 -513 -273 -569 -18 -8 -65 -17 -102 -20 l-69 -6 0 487 0
486 23 0 c40 0 47 -18 47 -120 0 -85 3 -99 25 -132 45 -67 152 -87 215 -40 45
34 63 79 68 169 14 255 -115 423 -325 423 l-53 0 0 81 0 81 148 -4 c128 -3
152 -6 188 -25z m-7348 -770 c0 -355 12 -511 58 -773 152 -867 596 -1661 1254
-2244 593 -526 1291 -849 2075 -961 398 -56 895 -43 1285 35 706 141 1331 450
1860 919 147 130 189 172 314 312 520 581 845 1261 965 2019 39 247 46 348 45
688 l0 332 348 0 348 0 0 -32 c0 -60 -29 -362 -45 -468 -99 -666 -339 -1301
-702 -1858 -380 -584 -876 -1063 -1498 -1447 -219 -136 -578 -306 -840 -398
-1268 -447 -2665 -323 -3830 341 -313 178 -656 437 -924 697 -747 724 -1229
1675 -1366 2690 -13 99 -26 223 -30 275 -3 52 -8 119 -11 148 l-5 52 350 0
350 0 -1 -327z m1236 -4317 c21 -109 159 -277 308 -373 355 -231 943 -390
1698 -459 238 -22 905 -30 1154 -14 852 53 1551 228 1930 482 100 67 217 192
259 277 20 41 37 82 37 92 0 30 16 31 104 5 131 -38 129 -31 43 -122 -527
-561 -956 -1363 -1087 -2036 l-23 -118 -1732 0 -1732 0 -17 88 c-93 479 -319
1006 -641 1492 -147 223 -292 408 -446 571 -19 19 -45 47 -58 61 l-23 27 93
30 c122 38 125 38 133 -3z m-843 -715 c74 -75 175 -188 224 -251 82 -106 228
-321 241 -354 3 -8 -11 -40 -30 -70 -126 -197 -233 -497 -266 -741 -6 -49 -14
-100 -16 -112 l-4 -23 -610 0 -610 0 0 29 c0 17 7 83 15 148 53 399 205 786
443 1123 92 130 156 205 290 342 l106 107 40 -31 c23 -18 102 -93 177 -167z
m7425 57 c412 -423 653 -939 712 -1525 l8 -83 -612 0 -613 0 -6 58 c-32 276
-125 558 -260 788 l-56 95 46 74 c108 174 262 371 405 519 97 101 216 204 236
205 6 1 69 -59 140 -131z m-6723 -1105 c87 -205 167 -439 167 -490 0 -10 -47
-13 -201 -13 l-202 0 7 57 c10 84 34 197 63 288 29 92 102 265 113 265 4 0 28
-48 53 -107z m5787 -30 c47 -119 93 -290 107 -400 l9 -73 -203 0 c-112 0 -203
3 -203 8 0 53 137 437 203 566 17 36 21 38 32 23 7 -9 31 -65 55 -124z"/>
<path d="M7367 14705 c-207 -76 -236 -372 -48 -489 37 -24 112 -46 154 -46 85
0 197 72 239 153 48 94 31 225 -39 307 -70 81 -201 113 -306 75z"/>
<path d="M7344 12301 c-17 -10 -41 -33 -53 -49 -28 -40 -29 -124 -1 -170 38
-61 62 -66 545 -106 242 -20 542 -46 666 -56 259 -23 282 -20 333 44 56 69 34
183 -44 229 -26 16 -132 27 -678 73 -356 30 -667 54 -692 54 -27 0 -58 -8 -76
-19z"/>
<path d="M10840 12265 c-338 -29 -626 -58 -640 -64 -62 -26 -90 -70 -90 -140
0 -58 25 -113 62 -132 51 -27 86 -28 367 -4 157 14 448 38 646 55 198 16 376
32 395 36 111 19 165 159 93 245 -39 46 -74 59 -150 58 -37 -1 -345 -25 -683
-54z"/>
<path d="M7857 11680 c-102 -26 -194 -102 -238 -196 -35 -75 -33 -208 3 -286
32 -69 96 -135 163 -168 43 -21 64 -25 150 -25 91 0 105 3 158 30 74 37 140
109 167 183 30 79 25 194 -11 272 -33 71 -100 137 -168 167 -62 27 -164 38
-224 23z"/>
<path d="M10960 11681 c-102 -24 -199 -104 -243 -199 -18 -38 -22 -65 -22
-142 0 -89 2 -99 34 -158 38 -70 89 -119 160 -154 39 -19 62 -23 146 -23 85 0
107 4 147 24 70 34 129 91 163 157 27 53 30 68 30 154 0 76 -4 104 -22 142
-31 68 -105 143 -172 174 -61 28 -160 39 -221 25z"/>
<path d="M9680 11558 c-26 -14 -53 -37 -65 -58 -19 -34 -20 -51 -20 -595 0
-542 1 -561 20 -594 33 -56 68 -76 135 -76 67 0 102 20 135 76 19 33 20 52 20
594 l0 560 -23 37 c-24 39 -91 78 -133 78 -14 0 -45 -10 -69 -22z"/>
<path d="M8673 10249 c-37 -11 -113 -92 -142 -152 -75 -156 -62 -326 37 -468
50 -71 92 -99 151 -99 66 0 111 26 139 80 28 54 25 119 -7 159 -64 78 -73 154
-25 211 30 35 54 91 54 125 0 98 -109 174 -207 144z"/>
<path d="M10204 10249 c-70 -21 -124 -108 -108 -176 3 -15 23 -52 43 -82 45
-66 50 -132 14 -178 -42 -52 -57 -88 -57 -136 0 -115 139 -189 235 -124 45 31
104 110 131 177 32 80 31 241 -1 322 -26 68 -88 154 -128 179 -36 23 -90 30
-129 18z"/>
<path d="M9000 9992 c-53 -29 -80 -75 -80 -136 0 -68 13 -90 93 -157 85 -72
187 -122 302 -150 116 -27 282 -23 390 11 152 48 319 167 345 245 24 74 -16
162 -87 191 -68 29 -115 14 -209 -62 -71 -59 -148 -87 -246 -92 -129 -6 -215
27 -346 134 -43 36 -113 43 -162 16z"/>
<path d="M8400 8948 c-67 -45 -87 -126 -50 -203 16 -33 32 -48 73 -67 73 -36
243 -91 388 -127 407 -99 933 -100 1344 -1 153 36 357 104 413 137 131 75 75
283 -76 283 -23 0 -77 -13 -120 -29 -200 -77 -404 -123 -650 -146 -196 -19
-279 -19 -478 0 -212 21 -378 55 -553 117 -178 61 -241 69 -291 36z"/>
<path d="M9084 8311 c-84 -38 -115 -129 -72 -210 42 -82 38 -81 479 -81 385 0
386 0 420 23 92 61 90 191 -5 261 -26 20 -41 21 -404 24 -351 2 -380 1 -418
-17z"/>
<path d="M9403 5339 c-167 -29 -305 -132 -376 -281 l-32 -68 -160 0 c-147 0
-165 -2 -205 -22 -88 -45 -114 -157 -53 -229 46 -54 66 -59 250 -59 l168 0 19
-46 c51 -124 152 -225 282 -283 54 -23 71 -26 189 -26 116 0 136 3 185 24 132
58 231 154 285 274 l25 57 166 0 c185 0 217 8 257 64 30 43 30 129 0 172 -46
65 -61 69 -253 72 l-175 4 -32 66 c-40 84 -97 149 -173 200 -104 70 -249 102
-367 81z m148 -314 c161 -57 186 -268 44 -364 -44 -29 -122 -39 -176 -21 -75
25 -139 119 -139 204 0 69 64 154 135 180 52 19 83 19 136 1z"/>
</g>
</svg>
